<svg width="39" height="39" viewBox="0 0 39 39" fill="none" xmlns="http://www.w3.org/2000/svg">
<rect width="39" height="39" fill="#F26B50"/>
<path d="M26.001 14.5H13.75C13.5511 14.5 13.3603 14.421 13.2197 14.2803C13.079 14.1397 13 13.9489 13 13.75C13 13.5511 13.079 13.3603 13.2197 13.2197C13.3603 13.079 13.5511 13 13.75 13H26C26.1989 13 26.3897 13.079 26.5303 13.2197C26.671 13.3603 26.75 13.5511 26.75 13.75C26.75 13.9489 26.671 14.1397 26.5303 14.2803C26.3897 14.421 26.1989 14.5 26 14.5H26.001Z" fill="#FBFBFB"/>
<path d="M26.001 20H13.75C13.5511 20 13.3603 19.921 13.2197 19.7803C13.079 19.6397 13 19.4489 13 19.25C13 19.0511 13.079 18.8603 13.2197 18.7197C13.3603 18.579 13.5511 18.5 13.75 18.5H26C26.1989 18.5 26.3897 18.579 26.5303 18.7197C26.671 18.8603 26.75 19.0511 26.75 19.25C26.75 19.4489 26.671 19.6397 26.5303 19.7803C26.3897 19.921 26.1989 20 26 20H26.001Z" fill="#FBFBFB"/>
<path d="M26.001 25.5H13.75C13.5511 25.5 13.3603 25.421 13.2197 25.2803C13.079 25.1397 13 24.9489 13 24.75C13 24.5511 13.079 24.3603 13.2197 24.2197C13.3603 24.079 13.5511 24 13.75 24H26C26.1989 24 26.3897 24.079 26.5303 24.2197C26.671 24.3603 26.75 24.5511 26.75 24.75C26.75 24.9489 26.671 25.1397 26.5303 25.2803C26.3897 25.421 26.1989 25.5 26 25.5H26.001Z" fill="#FBFBFB"/>
</svg>
