<svg width="144" height="24" viewBox="0 0 144 24" fill="none" xmlns="http://www.w3.org/2000/svg">
<circle cx="132" cy="12" r="12" fill="#F26B50"/>
<path d="M138.964 9.11684C138.932 8.37282 138.811 7.86131 138.639 7.41809C138.461 6.94761 138.188 6.5264 137.829 6.17624C137.479 5.82063 137.055 5.54431 136.59 5.36928C136.144 5.19693 135.635 5.07661 134.891 5.04381C134.142 5.00823 133.904 5 132.003 5C130.102 5 129.864 5.00823 129.117 5.04103C128.373 5.07384 127.861 5.19426 127.418 5.36651C126.948 5.54431 126.526 5.81785 126.176 6.17624C125.821 6.5264 125.544 6.95039 125.369 7.41541C125.197 7.86131 125.077 8.37004 125.044 9.11406C125.008 9.86363 125 10.1016 125 12.0027C125 13.9039 125.008 14.1418 125.041 14.8886C125.074 15.6326 125.194 16.1441 125.367 16.5874C125.544 17.0578 125.821 17.4791 126.176 17.8292C126.526 18.1848 126.95 18.4611 127.415 18.6362C127.861 18.8085 128.37 18.9288 129.114 18.9616C129.861 18.9946 130.099 19.0027 132 19.0027C133.901 19.0027 134.139 18.9946 134.886 18.9616C135.63 18.9288 136.141 18.8085 136.585 18.6362C137.526 18.2723 138.27 17.5283 138.633 16.5874C138.806 16.1415 138.926 15.6326 138.959 14.8886C138.992 14.1418 139 13.9039 139 12.0027C139 10.1016 138.997 9.86363 138.964 9.11684ZM137.703 14.8339C137.673 15.5178 137.558 15.887 137.463 16.1332C137.227 16.7433 136.743 17.2274 136.133 17.4627C135.887 17.5584 135.515 17.6733 134.834 17.7033C134.095 17.7362 133.874 17.7444 132.006 17.7444C130.137 17.7444 129.913 17.7362 129.177 17.7033C128.493 17.6733 128.124 17.5584 127.878 17.4627C127.574 17.3505 127.298 17.1727 127.073 16.9402C126.841 16.7131 126.663 16.4396 126.551 16.136C126.455 15.8898 126.34 15.5178 126.31 14.8367C126.277 14.0981 126.269 13.8765 126.269 12.0082C126.269 10.1398 126.277 9.91556 126.31 9.17977C126.34 8.49591 126.455 8.12663 126.551 7.88044C126.663 7.57676 126.841 7.30055 127.076 7.07616C127.303 6.84364 127.577 6.66584 127.88 6.55375C128.127 6.45801 128.499 6.34314 129.18 6.31301C129.918 6.28021 130.14 6.27198 132.008 6.27198C133.879 6.27198 134.101 6.28021 134.837 6.31301C135.521 6.34314 135.89 6.45801 136.136 6.55375C136.44 6.66584 136.716 6.84364 136.94 7.07616C137.173 7.30322 137.351 7.57676 137.463 7.88044C137.558 8.12663 137.673 8.49858 137.703 9.17977C137.736 9.91834 137.744 10.1398 137.744 12.0082C137.744 13.8765 137.736 14.0953 137.703 14.8339Z" fill="white"/>
<path d="M132.003 8.40586C130.017 8.40586 128.406 10.017 128.406 12.003C128.406 13.9889 130.017 15.6001 132.003 15.6001C133.989 15.6001 135.6 13.9889 135.6 12.003C135.6 10.017 133.989 8.40586 132.003 8.40586ZM132.003 14.3363C130.714 14.3363 129.669 13.2914 129.669 12.003C129.669 10.7145 130.714 9.66961 132.003 9.66961C133.291 9.66961 134.336 10.7145 134.336 12.003C134.336 13.2914 133.291 14.3363 132.003 14.3363Z" fill="white"/>
<path d="M136.582 8.26288C136.582 8.72662 136.206 9.10264 135.742 9.10264C135.279 9.10264 134.902 8.72662 134.902 8.26288C134.902 7.79903 135.279 7.42312 135.742 7.42312C136.206 7.42312 136.582 7.79903 136.582 8.26288Z" fill="white"/>
<circle cx="92" cy="12" r="12" fill="#F26B50"/>
<path d="M89.0328 9.17721H86.4172C86.3012 9.17721 86.2071 9.27131 86.2071 9.38735V17.7899C86.2071 17.906 86.3012 18.0001 86.4172 18.0001H89.0328C89.1488 18.0001 89.2429 17.906 89.2429 17.7899V9.38735C89.2429 9.27131 89.1488 9.17721 89.0328 9.17721Z" fill="white"/>
<path d="M87.7259 5C86.7742 5 86 5.7734 86 6.72403C86 7.67509 86.7742 8.44878 87.7259 8.44878C88.6769 8.44878 89.4505 7.67505 89.4505 6.72403C89.4505 5.7734 88.6769 5 87.7259 5Z" fill="white"/>
<path d="M95.6856 8.96819C94.6351 8.96819 93.8585 9.41979 93.3875 9.93291V9.38717C93.3875 9.27113 93.2935 9.17703 93.1774 9.17703H90.6725C90.5565 9.17703 90.4624 9.27113 90.4624 9.38717V17.7898C90.4624 17.9058 90.5565 17.9999 90.6725 17.9999H93.2824C93.3984 17.9999 93.4925 17.9058 93.4925 17.7898V13.6324C93.4925 12.2315 93.873 11.6857 94.8496 11.6857C95.9132 11.6857 95.9977 12.5607 95.9977 13.7045V17.7898C95.9977 17.9059 96.0917 17.9999 96.2078 17.9999H98.8186C98.9347 17.9999 99.0287 17.9059 99.0287 17.7898V13.1808C99.0287 11.0977 98.6315 8.96819 95.6856 8.96819Z" fill="white"/>
<circle cx="52" cy="12" r="12" fill="#F26B50"/>
<path d="M59 8.30223C58.4794 8.52308 57.9246 8.66946 57.3462 8.74054C57.9412 8.397 58.3954 7.85715 58.6089 7.20646C58.0541 7.52631 57.4416 7.75223 56.7889 7.87831C56.2621 7.33592 55.5114 7 54.6924 7C53.1034 7 51.8241 8.24723 51.8241 9.77623C51.8241 9.99623 51.8434 10.2078 51.8906 10.4092C49.5045 10.2966 47.3931 9.19069 45.9747 7.506C45.7271 7.92146 45.5819 8.397 45.5819 8.90892C45.5819 9.87015 46.0938 10.7222 46.8568 11.2155C46.3956 11.2071 45.9433 11.0776 45.56 10.8737C45.56 10.8822 45.56 10.8932 45.56 10.9042C45.56 12.2529 46.5549 13.3732 47.8595 13.6313C47.6259 13.6931 47.3712 13.7227 47.107 13.7227C46.9232 13.7227 46.7377 13.7125 46.5636 13.6753C46.9355 14.7745 47.9908 15.5825 49.2455 15.6088C48.269 16.3475 47.0291 16.7925 45.6869 16.7925C45.4515 16.7925 45.2257 16.7824 45 16.7545C46.2714 17.5473 47.7781 18 49.403 18C54.6845 18 57.572 13.7692 57.572 10.102C57.572 9.97931 57.5676 9.86085 57.5615 9.74323C58.1311 9.35231 58.6097 8.86408 59 8.30223Z" fill="white"/>
<circle cx="12" cy="12" r="12" fill="#F26B50"/>
<path d="M13 9.5V7.5C13 6.948 13.448 6.5 14 6.5H15V4H13C11.343 4 10 5.343 10 7V9.5H8V12H10V20H13V12H15L16 9.5H13Z" fill="white"/>
</svg>
